<svg width="28" height="24" viewBox="0 0 28 24" fill="none" xmlns="http://www.w3.org/2000/svg">
<path d="M18.0834 4.96341C19.3667 4.96341 20.4167 3.95047 20.4167 2.71242C20.4167 1.47436 19.3667 0.461426 18.0834 0.461426C16.8 0.461426 15.75 1.47436 15.75 2.71242C15.75 3.95047 16.8 4.96341 18.0834 4.96341Z" fill="#363636"/>
<path d="M5.83335 12.2812C2.625 12.2812 0 14.8141 0 17.9098C0 21.0055 2.625 23.5384 5.83335 23.5384C9.0417 23.5384 11.6667 21.0055 11.6667 17.9098C11.6667 14.8141 9.04165 12.2812 5.83335 12.2812ZM5.83335 21.8498C3.55835 21.8498 1.75 20.1049 1.75 17.9098C1.75 15.7147 3.55835 13.9698 5.83335 13.9698C8.10835 13.9698 9.9167 15.7147 9.9167 17.9098C9.9167 20.1049 8.10835 21.8498 5.83335 21.8498Z" fill="#363636"/>
<path d="M20.9999 10.2692V8.5384C19.2499 8.5384 17.457 7.80515 16.6035 7.01793C15.7499 6.2307 15.7499 5.65378 15.575 5.07606C15.4 4.49834 14.6416 4.40063 14 4.40063C13.3583 4.40063 12.775 4.62579 12.3666 5.07606L9.15825 8.17177C8.7499 8.56579 8.45825 9.12861 8.45825 9.74778C8.45825 10.367 8.7499 10.9298 9.15825 11.38L13.4166 14.3076V20.1606H15.1666V13.1249L11.4428 10.3858C10.9477 10.0216 10.8952 9.30134 11.3321 8.8692L12.9095 7.30917C13.2129 7.00906 13.6737 6.93454 14.0397 7.15405C14.4473 7.3985 14.9858 7.75578 15.4368 8.17177C16.2904 8.959 18.6082 10.2692 20.9999 10.2692Z" fill="#363636"/>
<path d="M22.1666 12.2812C18.9583 12.2812 16.3333 14.8141 16.3333 17.9098C16.3333 21.0055 18.9583 23.5384 22.1666 23.5384C25.375 23.5384 28 21.0055 28 17.9098C28 14.8141 25.375 12.2812 22.1666 12.2812ZM22.1666 21.8498C19.8916 21.8498 18.0833 20.1049 18.0833 17.9098C18.0833 15.7147 19.8916 13.9698 22.1666 13.9698C24.4416 13.9698 26.25 15.7147 26.25 17.9098C26.25 20.1049 24.4416 21.8498 22.1666 21.8498Z" fill="#363636"/>
</svg>
