<svg width="24" height="23" viewBox="0 0 24 23" fill="none" xmlns="http://www.w3.org/2000/svg">
<path d="M18.94 16.9662H9.30715L8.7118 14.5847H21.3006L24 3.78693H6.01236L5.31 0.991699H0.25V2.4054H4.21L7.86406 17.0226C6.72749 17.2667 5.87272 18.2789 5.87272 19.4873C5.87272 20.8774 7.00367 22.0084 8.39384 22.0084C9.78401 22.0084 10.915 20.8774 10.915 19.4873C10.915 19.0902 10.8224 18.7144 10.6581 18.3799H16.6757C16.5115 18.7144 16.4189 19.0902 16.4189 19.4873C16.4189 20.8774 17.5499 22.0084 18.94 22.0084C20.3301 22.0084 21.4611 20.8774 21.4611 19.4873C21.4611 18.0972 20.3301 16.9662 18.94 16.9662ZM6.36575 5.20063H22.1893L20.1967 13.171H8.35836L6.36575 5.20063ZM8.39384 20.5947C7.7832 20.5947 7.28642 20.0979 7.28642 19.4873C7.28642 18.8767 7.7832 18.3799 8.39384 18.3799C9.00448 18.3799 9.50126 18.8767 9.50126 19.4873C9.50126 20.0979 9.00448 20.5947 8.39384 20.5947ZM18.94 20.5947C18.3294 20.5947 17.8326 20.0979 17.8326 19.4873C17.8326 18.8767 18.3294 18.3799 18.94 18.3799C19.5506 18.3799 20.0474 18.8767 20.0474 19.4873C20.0473 20.0979 19.5506 20.5947 18.94 20.5947Z" fill="#363636"/>
</svg>
