<svg width="82" height="81" viewBox="0 0 82 81" fill="none" xmlns="http://www.w3.org/2000/svg">
<rect width="82" height="81" fill="#F4F4F4"/>
<path d="M45.458 23.3473L45.4581 23.3473C46.5366 23.6445 47.3616 24.6347 47.485 25.9869C47.4847 25.9842 47.4849 25.9911 47.4853 26.0099C47.4861 26.0486 47.4881 26.1377 47.4898 26.299C47.4922 26.5151 47.4942 26.8237 47.4958 27.2256C47.499 28.0289 47.5006 29.1985 47.5006 30.732C47.5006 30.9112 47.5006 31.0839 47.5006 31.2504C47.5005 35.615 47.5005 35.6938 47.6015 36.3328L47.6015 36.3329C47.9349 38.4412 49.0579 40.3133 50.7358 41.4767L45.458 23.3473ZM45.458 23.3473C44.8302 23.1743 43.438 22.9611 42.483 22.9007L42.5382 22.0275M45.458 23.3473L42.5382 22.0275M42.5382 22.0275L42.483 22.9007C41.0123 22.8078 39.1182 22.9708 37.6634 23.316C36.5696 23.5756 35.7727 24.4197 35.5328 25.7794C35.5325 25.7855 35.5323 25.7929 35.532 25.8015C35.5306 25.8504 35.5291 25.9236 35.5276 26.0243C35.5246 26.225 35.5218 26.5224 35.5192 26.927C35.5139 27.7355 35.5094 28.9639 35.5051 30.6844C35.4941 35.1382 35.4985 35.6294 35.432 36.1109C35.4212 36.1889 35.4086 36.2667 35.3938 36.361L35.3938 36.3611C35.075 38.3839 33.9951 40.2118 32.3939 41.3861L32.3936 41.3864C32.2864 41.4649 30.6077 42.5456 28.7104 43.7611C27.7492 44.3769 26.8611 44.947 26.2047 45.3695C25.8765 45.5807 25.6066 45.7548 25.4146 45.879C25.2924 45.9582 25.2129 46.01 25.169 46.0386C25.1373 46.0593 25.1243 46.0678 25.1273 46.0656L25.1272 46.0657C24.1458 46.7775 23.6617 48.078 23.964 49.4019C24.2567 50.6839 25.2044 52.9635 26.0991 54.4943C26.6188 55.3835 27.3207 56.396 27.9668 57.1881L27.9668 57.1882C28.7339 58.1289 29.952 58.3803 30.9713 57.8539L31.3728 58.6313L30.971 57.854C30.958 57.8608 30.9752 57.85 31.0343 57.8131C31.0791 57.7852 31.148 57.7422 31.246 57.6805C31.4434 57.5561 31.7201 57.3807 32.0564 57.1667C32.7287 56.7391 33.6359 56.1594 34.6156 55.5313C34.7506 55.4446 34.8811 55.361 35.007 55.2802C38.4505 53.0719 38.5664 52.9976 39.3148 52.7243C40.7734 52.1918 42.2788 52.197 43.7332 52.7402C44.4466 53.0067 44.5867 53.0965 48.0303 55.3045C48.1366 55.3727 48.2461 55.4429 48.3588 55.5151C49.3368 56.1422 50.2461 56.7227 50.9231 57.1528C51.2618 57.3679 51.5415 57.5448 51.7423 57.671C51.8603 57.7451 51.9383 57.7935 51.9839 57.8218C52.0263 57.848 52.0406 57.8569 52.033 57.853C52.9145 58.3116 53.9551 58.1848 54.7153 57.5137L54.7154 57.5136C55.0507 57.2177 55.6075 56.5109 56.2167 55.5813C56.8111 54.6742 57.4032 53.6355 57.8193 52.7369L58.6133 53.1047M42.5382 22.0275L58.6133 53.1047M58.6133 53.1047L57.8193 52.7369M58.6133 53.1047L57.8193 52.7369M57.8193 52.7369C58.2845 51.7325 58.8852 50.0678 59.0405 49.384L57.8193 52.7369ZM54.4401 43.8598C52.5305 42.6364 50.8533 41.558 50.7363 41.477L59.0405 49.3839C59.2775 48.3402 59.0067 47.2575 58.3493 46.5035L58.3448 46.4984C58.2511 46.3909 58.2238 46.3596 58.1699 46.3118C58.1078 46.2567 57.9999 46.1722 57.7567 46.0057C57.2819 45.6805 56.4031 45.1175 54.6007 43.9627L54.4401 43.8598Z" fill="#363636" stroke="#363636" stroke-width="1.75"/>
</svg>
