<svg width="82" height="81" viewBox="0 0 82 81" fill="none" xmlns="http://www.w3.org/2000/svg">
<rect width="82" height="81" fill="#F4F4F4"/>
<g clip-path="url(#clip0)">
<path d="M21.2 43.1983V43.6983H21.7H59.3H59.8V43.1983V24.2944C59.8 23.5151 59.4863 22.7517 58.9879 22.1816C58.4883 21.6104 57.7717 21.2 56.95 21.2H24.05C23.2283 21.2 22.5117 21.6104 22.0121 22.1816C21.5137 22.7517 21.2 23.5151 21.2 24.2944V43.1983ZM22.2 59.0444H21.7H21.6848H21.6696H21.6544H21.6392H21.6241H21.6089H21.5938H21.5786H21.5635H21.5484H21.5333H21.5182H21.5032H21.4881H21.4731H21.458H21.443H21.428H21.413H21.398H21.3831H21.3681H21.3532H21.3383H21.3233H21.3084H21.2935H21.2787H21.2638H21.2489H21.2341H21.2193H21.2045H21.1897H21.1749H21.1601H21.1454H21.1306H21.1159H21.1012H21.0865H21.0718H21.0571H21.0425H21.0278H21.0132H20.9986H20.984H20.9694H20.9549H20.9403H20.9258H20.9112H20.8967H20.8822H20.8678H20.8533H20.8388H20.8244H20.81H20.7956H20.7812H20.7668H20.7525H20.7382H20.7238H20.7095H20.6952H20.681H20.6667H20.6525H20.6382H20.624H20.6099H20.5957H20.5815H20.5674H20.5533H20.5391H20.5251H20.511H20.4969H20.4829H20.4689H20.4549H20.4409H20.4269H20.413H20.399H20.3851H20.3712H20.3573H20.3435H20.3296H20.3158H20.302H20.2882H20.2744H20.2607H20.2469H20.2332H20.2195H20.2058H20.1922H20.1785H20.1649H20.1513H20.1377H20.1242H20.1106H20.0971H20.0836H20.0701H20.0566H20.0432H20.0297H20.0163H20.0029H19.9896H19.9762H19.9629H19.9496H19.9363H19.923H19.9098H19.8965H19.8833H19.8701H19.857H19.8438H19.8307H19.8176H19.8045H19.7914H19.7784H19.7653H19.7523H19.7394H19.7264H19.7135H19.7005H19.6876H19.6748H19.6619H19.6491H19.6363H19.6235H19.6107H19.598H19.5853H19.5726H19.5599H19.5472H19.5346H19.522H19.5094H19.4968H19.4843H19.4718H19.4593H19.4468H19.4343H19.4219H19.4095H19.3971H19.3847H19.3724H19.3601H19.3478H19.3355H19.3233H19.3111H19.2989H19.2867H19.2746H19.2624H19.2503H19.2383H19.2262H19.2142H19.2022H19.1902H19.1782H19.1663H19.1544H19.1425H19.1307H19.1188H19.107H19.0952H19.0835H19.0717H19.06H19.0484H19.0367H19.0251H19.0135H19.0019H18.9903H18.9788H18.9673H18.9558H18.9444H18.9329H18.9215H18.9102H18.8988H18.8875H18.8762H18.8649H18.8537H18.8425H18.8313H18.8201H18.809H18.7979H18.7868H18.7757H18.7647H18.7537H18.7427H18.7318H18.7208H18.7099H18.6991H18.6882H18.6774H18.6666H18.6559H18.6452H18.6345H18.6238H18.6131H18.6025H18.5919H18.5814H18.5708H18.5603H18.5499H18.5394H18.529H18.5186H18.5083H18.4979H18.4876H18.4773H18.4671H18.4569H18.4467H18.4365H18.4264H18.4163H18.4062H18.3962H18.3862H18.3762H18.3663H18.3563H18.3465H18.3366H18.3268H18.317H18.3072H18.2975H18.2877H18.2781H18.2684H18.2588H18.2492H18.2396H18.2301H18.2206H18.2112H18.2017H18.1923H18.1829H18.1736H18.1643H18.155H18.1458H18.1366H18.1274H18.1182H18.1091H18.1H18.0909H18.0819H18.0729H18.064H18.055H18.0461H18.0373H18.0284H18.0196H18.0109H18.0021H17.9934H17.9848H17.9761H17.9675H17.9589H17.9504H17.9419H17.9334H17.925H17.9166H17.9082H17.8999H17.8916H17.8833H17.875H17.8668H17.8587H17.8505H17.8424H17.8344H17.8263H17.8183H17.8104H17.8024H17.7945H17.7867H17.7788H17.771H17.7633H17.7555H17.7478H17.7402H17.7326H17.725H17.7174H17.7099H17.7024H17.695H17.6876H17.6802H17.6729H17.6656H17.6583H17.6511H17.6439H17.6367H17.6296H17.6225H17.6154H17.6084H17.6014H17.5945H17.5876H17.5807H17.5739H17.5671H17.5603H17.5536H17.5469H17.5402H17.5336H17.527H17.5205H17.514H17.5075H17.5011H17.5V40.7444V17.5H17.5011H17.5075H17.514H17.5205H17.527H17.5336H17.5402H17.5469H17.5536H17.5603H17.5671H17.5739H17.5807H17.5876H17.5945H17.6014H17.6084H17.6154H17.6225H17.6296H17.6367H17.6439H17.6511H17.6583H17.6656H17.6729H17.6802H17.6876H17.695H17.7024H17.7099H17.7174H17.725H17.7326H17.7402H17.7478H17.7555H17.7633H17.771H17.7788H17.7867H17.7945H17.8024H17.8104H17.8183H17.8263H17.8344H17.8424H17.8505H17.8587H17.8668H17.875H17.8833H17.8916H17.8999H17.9082H17.9166H17.925H17.9334H17.9419H17.9504H17.9589H17.9675H17.9761H17.9848H17.9934H18.0021H18.0109H18.0196H18.0284H18.0373H18.0461H18.055H18.064H18.0729H18.0819H18.0909H18.1H18.1091H18.1182H18.1274H18.1366H18.1458H18.155H18.1643H18.1736H18.1829H18.1923H18.2017H18.2112H18.2206H18.2301H18.2396H18.2492H18.2588H18.2684H18.2781H18.2877H18.2975H18.3072H18.317H18.3268H18.3366H18.3465H18.3563H18.3663H18.3762H18.3862H18.3962H18.4062H18.4163H18.4264H18.4365H18.4467H18.4569H18.4671H18.4773H18.4876H18.4979H18.5083H18.5186H18.529H18.5394H18.5499H18.5603H18.5708H18.5814H18.5919H18.6025H18.6131H18.6238H18.6345H18.6452H18.6559H18.6666H18.6774H18.6882H18.6991H18.7099H18.7208H18.7318H18.7427H18.7537H18.7647H18.7757H18.7868H18.7979H18.809H18.8201H18.8313H18.8425H18.8537H18.8649H18.8762H18.8875H18.8988H18.9102H18.9215H18.9329H18.9444H18.9558H18.9673H18.9788H18.9903H19.0019H19.0135H19.0251H19.0367H19.0484H19.06H19.0717H19.0835H19.0952H19.107H19.1188H19.1307H19.1425H19.1544H19.1663H19.1782H19.1902H19.2022H19.2142H19.2262H19.2383H19.2503H19.2624H19.2746H19.2867H19.2989H19.3111H19.3233H19.3355H19.3478H19.3601H19.3724H19.3847H19.3971H19.4095H19.4219H19.4343H19.4468H19.4593H19.4718H19.4843H19.4968H19.5094H19.522H19.5346H19.5472H19.5599H19.5726H19.5853H19.598H19.6107H19.6235H19.6363H19.6491H19.6619H19.6748H19.6876H19.7005H19.7135H19.7264H19.7394H19.7523H19.7653H19.7784H19.7914H19.8045H19.8176H19.8307H19.8438H19.857H19.8701H19.8833H19.8965H19.9098H19.923H19.9363H19.9496H19.9629H19.9762H19.9896H20.0029H20.0163H20.0297H20.0432H20.0566H20.0701H20.0836H20.0971H20.1106H20.1242H20.1377H20.1513H20.1649H20.1785H20.1922H20.2058H20.2195H20.2332H20.2469H20.2607H20.2744H20.2882H20.302H20.3158H20.3296H20.3435H20.3573H20.3712H20.3851H20.399H20.413H20.4269H20.4409H20.4549H20.4689H20.4829H20.4969H20.511H20.5251H20.5391H20.5533H20.5674H20.5815H20.5957H20.6099H20.624H20.6382H20.6525H20.6667H20.681H20.6952H20.7095H20.7238H20.7382H20.7525H20.7668H20.7812H20.7956H20.81H20.8244H20.8388H20.8533H20.8678H20.8822H20.8967H20.9112H20.9258H20.9403H20.9549H20.9694H20.984H20.9986H21.0132H21.0278H21.0425H21.0571H21.0718H21.0865H21.1012H21.1159H21.1306H21.1454H21.1601H21.1749H21.1897H21.2045H21.2193H21.2341H21.2489H21.2638H21.2787H21.2935H21.3084H21.3233H21.3383H21.3532H21.3681H21.3831H21.398H21.413H21.428H21.443H21.458H21.4731H21.4881H21.5032H21.5182H21.5333H21.5484H21.5635H21.5786H21.5938H21.6089H21.6241H21.6392H21.6544H21.6696H21.6848H21.7H59.3H61.1299H61.9283H62.1125H62.1575H62.1687H62.1799H62.191H62.2021H62.2901H62.4606H62.471H62.4814H62.5021H62.5431H62.6238H62.7794H62.8171H62.8357H62.845H62.8542H62.9271H63.0666H63.1332H63.1656H63.1817H63.1896H63.1976H63.2598H63.3198H63.3775H63.4329H63.486H63.5V40.7444V59.0444H63.4989H63.4925H63.486H63.4795H63.473H63.4664H63.4598H63.4531H63.4464H63.4397H63.4329H63.4261H63.4193H63.4124H63.4055H63.3986H63.3916H63.3846H63.3775H63.3704H63.3633H63.3561H63.3489H63.3417H63.3344H63.3271H63.3198H63.3124H63.305H63.2976H63.2901H63.2826H63.275H63.2674H63.2598H63.2522H63.2445H63.2367H63.229H63.2212H63.2133H63.2055H63.1976H63.1896H63.1817H63.1737H63.1656H63.1576H63.1495H63.1413H63.1332H63.125H63.1167H63.1084H63.1001H63.0918H63.0834H63.075H63.0666H63.0581H63.0496H63.0411H63.0325H63.0239H63.0152H63.0066H62.9979H62.9891H62.9804H62.9716H62.9627H62.9539H62.945H62.936H62.9271H62.9181H62.9091H62.9H62.8909H62.8818H62.8726H62.8634H62.8542H62.845H62.8357H62.8264H62.8171H62.8077H62.7983H62.7888H62.7794H62.7699H62.7604H62.7508H62.7412H62.7316H62.7219H62.7123H62.7025H62.6928H62.683H62.6732H62.6634H62.6535H62.6437H62.6337H62.6238H62.6138H62.6038H62.5938H62.5837H62.5736H62.5635H62.5533H62.5431H62.5329H62.5226H62.5124H62.5021H62.4917H62.4814H62.471H62.4606H62.4501H62.4397H62.4291H62.4186H62.4081H62.3975H62.3869H62.3762H62.3655H62.3548H62.3441H62.3334H62.3226H62.3118H62.3009H62.2901H62.2792H62.2682H62.2573H62.2463H62.2353H62.2243H62.2132H62.2021H62.191H62.1799H62.1687H62.1575H62.1463H62.1351H62.1238H62.1125H62.1012H62.0898H62.0785H62.0671H62.0556H62.0442H62.0327H62.0212H62.0097H61.9981H61.9865H61.9749H61.9633H61.9516H61.94H61.9283H61.9165H61.9048H61.893H61.8812H61.8693H61.8575H61.8456H61.8337H61.8218H61.8098H61.7978H61.7858H61.7738H61.7617H61.7497H61.7376H61.7254H61.7133H61.7011H61.6889H61.6767H61.6645H61.6522H61.6399H61.6276H61.6153H61.6029H61.5905H61.5781H61.5657H61.5532H61.5407H61.5282H61.5157H61.5032H61.4906H61.478H61.4654H61.4528H61.4401H61.4274H61.4147H61.402H61.3893H61.3765H61.3637H61.3509H61.3381H61.3252H61.3124H61.2995H61.2865H61.2736H61.2606H61.2477H61.2347H61.2216H61.2086H61.1955H61.1824H61.1693H61.1562H61.143H61.1299H61.1167H61.1035H61.0902H61.077H61.0637H61.0504H61.0371H61.0238H61.0104H60.9971H60.9837H60.9703H60.9568H60.9434H60.9299H60.9164H60.9029H60.8894H60.8758H60.8623H60.8487H60.8351H60.8215H60.8078H60.7942H60.7805H60.7668H60.7531H60.7393H60.7256H60.7118H60.698H60.6842H60.6704H60.6565H60.6427H60.6288H60.6149H60.601H60.587H60.5731H60.5591H60.5451H60.5311H60.5171H60.5031H60.489H60.4749H60.4608H60.4467H60.4326H60.4185H60.4043H60.3901H60.376H60.3617H60.3475H60.3333H60.319H60.3048H60.2905H60.2762H60.2618H60.2475H60.2332H60.2188H60.2044H60.19H60.1756H60.1611H60.1467H60.1322H60.1178H60.1033H60.0888H60.0742H60.0597H60.0451H60.0306H60.016H60.0014H59.9868H59.9722H59.9575H59.9429H59.9282H59.9135H59.8988H59.8841H59.8694H59.8546H59.8399H59.8251H59.8103H59.7955H59.7807H59.7659H59.7511H59.7362H59.7213H59.7065H59.6916H59.6767H59.6617H59.6468H59.6319H59.6169H59.602H59.587H59.572H59.557H59.542H59.5269H59.5119H59.4968H59.4818H59.4667H59.4516H59.4365H59.4214H59.4062H59.3911H59.3759H59.3608H59.3456H59.3304H59.3152H59.3H58.8V59.5444V61.8944C58.8 62.3966 58.6009 62.7844 58.2862 63.0539C57.9644 63.3294 57.4976 63.5 56.95 63.5H52.25C51.7024 63.5 51.2356 63.3294 50.9138 63.0539C50.5991 62.7844 50.4 62.3966 50.4 61.8944V59.3V58.8H49.9H31.1H30.6V59.3V61.8944C30.6 62.3966 30.4009 62.7844 30.0862 63.0539C29.7644 63.3294 29.2976 63.5 28.75 63.5H24.05C23.5024 63.5 23.0356 63.3294 22.7138 63.0539C22.3991 62.7844 22.2 62.3966 22.2 61.8944V59.5444V59.0444ZM23.55 52.4944C23.55 54.0677 24.8267 55.3444 26.4 55.3444C27.9733 55.3444 29.25 54.0677 29.25 52.4944C29.25 50.9211 27.9733 49.6444 26.4 49.6444C24.8267 49.6444 23.55 50.9211 23.55 52.4944ZM51.75 52.4944C51.75 54.0677 53.0267 55.3444 54.6 55.3444C56.1733 55.3444 57.45 54.0677 57.45 52.4944C57.45 50.9211 56.1733 49.6444 54.6 49.6444C53.0267 49.6444 51.75 50.9211 51.75 52.4944Z" fill="#363636" stroke="#363636"/>
</g>
<defs>
<clipPath id="clip0">
<rect x="17" y="17" width="47" height="47" fill="white"/>
</clipPath>
</defs>
</svg>
