<svg width="30" height="30" viewBox="0 0 30 30" fill="none" xmlns="http://www.w3.org/2000/svg">
<path d="M28.9543 9.88252L26.1204 4.98192C25.8078 4.40581 25.0974 4.14492 24.4464 4.37869L21.2443 5.66519C20.6347 5.22731 19.9953 4.85531 19.3352 4.55694L18.8483 1.1625C18.7669 0.499875 18.1908 0 17.5114 0H11.828C11.1486 0 10.5738 0.499875 10.4924 1.15087L10.0042 4.55827C9.36353 4.85017 8.73578 5.21575 8.09895 5.66779L4.88797 4.37748C4.25895 4.13335 3.54334 4.39171 3.22559 4.96908L0.38776 9.87865C0.0467597 10.4573 0.187531 11.2078 0.717135 11.6263L3.42964 13.7472C3.38828 14.1566 3.36763 14.5144 3.36763 14.8541C3.36763 15.1939 3.38828 15.5516 3.43091 15.9598L0.714531 18.0833C0.196553 18.4928 0.0545097 19.2187 0.383885 19.8258L3.21778 24.7276C3.53293 25.3024 4.24078 25.5659 4.89305 25.3295L8.09507 24.043C8.70472 24.4809 9.3441 24.8529 10.0042 25.1513L10.4912 28.5471C10.5738 29.2084 11.1499 29.7083 11.828 29.7083H16.2791C16.5207 29.7083 16.7415 29.5739 16.85 29.3647C16.9611 29.1516 16.9443 28.8945 16.8074 28.6969C15.818 27.2813 15.2962 25.6214 15.2962 23.8997C15.2962 23.0963 15.4137 22.2915 15.6462 21.5075C15.7056 21.306 15.6643 21.0877 15.5338 20.9237C15.4033 20.7596 15.2032 20.6718 14.9926 20.6783C14.9228 20.6821 14.8543 20.6912 14.6787 20.7131C11.4663 20.7131 8.8533 18.1001 8.8533 14.8877C8.8533 11.6741 11.4663 9.06102 14.6787 9.06102C17.8911 9.06102 20.5041 11.674 20.4925 14.9936C20.4835 15.0621 20.4744 15.1305 20.4705 15.2003C20.4601 15.4095 20.5519 15.611 20.7159 15.7415C20.8812 15.872 21.0995 15.9107 21.2997 15.8539C22.5565 15.4793 23.7952 15.3889 25.198 15.6446C25.3698 15.6756 25.5584 15.5981 25.703 15.4909C25.8477 15.3837 25.942 15.1848 25.9614 15.0065C25.964 14.9833 25.9704 14.8787 25.9704 14.8554C25.9704 14.4537 25.942 14.0739 25.9084 13.7484L28.6236 11.625C29.1416 11.2169 29.285 10.4909 28.9543 9.88252ZM24.8313 12.9529C24.653 13.0924 24.56 13.3171 24.5884 13.5419C24.6155 13.7589 24.6439 14.0017 24.662 14.26C23.6752 14.1554 22.7297 14.2096 21.7842 14.4008C21.5349 10.7001 18.4452 7.7655 14.6826 7.7655C10.7585 7.7655 7.56547 10.9585 7.56547 14.8839C7.56547 18.6478 10.5001 21.7375 14.2007 21.9855C14.0729 22.6171 14.0083 23.2565 14.0083 23.8959C14.0083 25.4807 14.3919 27.0204 15.1243 28.4064L11.7724 28.3754L11.2325 24.6101C11.1989 24.3828 11.0491 24.1904 10.8372 24.1038C10.0506 23.7821 9.29372 23.3417 8.5846 22.7966C8.46962 22.7075 8.33012 22.6623 8.19062 22.6623C8.10924 22.6623 8.02787 22.6778 7.95037 22.7088L4.34535 24.0934L1.51272 19.0998L4.5107 16.7554C4.68895 16.6159 4.78195 16.3912 4.75355 16.1664C4.68895 15.6523 4.65928 15.2352 4.65928 14.8541C4.65928 14.473 4.68901 14.0558 4.75355 13.5417C4.78195 13.317 4.68895 13.0922 4.5107 12.9527L1.5037 10.5309L4.41122 5.57861L7.9491 6.99946C8.15962 7.08344 8.39859 7.05244 8.57812 6.91681C9.34022 6.34459 10.079 5.91579 10.836 5.60579C11.0478 5.51794 11.1989 5.32679 11.2312 5.09944L11.828 1.29159L17.5668 1.33421L18.1067 5.09944C18.1403 5.32679 18.2901 5.51921 18.502 5.60579C19.2873 5.92742 20.0455 6.36656 20.7546 6.91294C20.9342 7.05244 21.1757 7.08471 21.3889 6.99946L24.9939 5.61609L27.8291 10.6084L24.8313 12.9529Z" fill="#363636" stroke="#363636" stroke-width="0.3"/>
</svg>
