<svg width="24" height="24" viewBox="0 0 24 24" fill="none" xmlns="http://www.w3.org/2000/svg">
<path fill-rule="evenodd" clip-rule="evenodd" d="M12.0001 14.4C16.5421 14.4 20.4001 17.4 21.0001 22.2H3.00009C3.6001 17.4 7.45809 14.4 12.0001 14.4ZM6.60009 7.2C6.60009 4.5528 9.35289 1.8 12.0001 1.8C14.6473 1.8 17.4001 4.5528 17.4001 7.2C17.4001 9.8472 14.6473 12.6 12.0001 12.6C9.35289 12.6 6.60009 9.8472 6.60009 7.2ZM15.6001 13.2C18.0001 11.4 19.2001 9.468 19.2001 7.2C19.2001 3.2232 15.9769 0 12.0001 0C8.02329 0 4.80009 3.2232 4.80009 7.2C4.80009 9.468 6.0001 11.4 8.4001 13.2C3.0001 15.6 1.8001 18.6 0.600098 24H23.4001C22.2001 18.6 21.0001 15.6 15.6001 13.2Z" fill="#363636"/>
</svg>
