<svg width="25" height="24" viewBox="0 0 25 24" fill="none" xmlns="http://www.w3.org/2000/svg">
<path fill-rule="evenodd" clip-rule="evenodd" d="M24.2041 22.5467L23.0216 23.7333L15.9266 16.6133L17.1091 15.4267L24.2041 22.5467ZM8.83151 14.8333C5.57134 14.8333 2.32772 11.5783 2.32772 8.30667C2.32772 5.03503 5.57134 1.78 8.83151 1.78C12.0917 1.78 15.3353 5.03503 15.3353 8.30667C15.3353 11.5783 12.0917 14.8333 8.83151 14.8333ZM8.83151 0C4.25994 0 0.553955 3.71901 0.553955 8.30667C0.553955 12.8943 4.25994 16.6133 8.83151 16.6133C13.4031 16.6133 17.1091 12.8943 17.1091 8.30667C17.1091 3.71901 13.4031 0 8.83151 0Z" fill="#B6B6B6"/>
</svg>
