<svg width="37" height="21" viewBox="0 0 37 21" fill="none" xmlns="http://www.w3.org/2000/svg">
<path fill-rule="evenodd" clip-rule="evenodd" d="M26.4434 20.0278C31.8611 20.0278 36.3011 15.5221 36.3011 10.0139C36.3011 4.5057 31.8611 -5.72205e-06 26.4434 -5.72205e-06L9.85771 -5.72205e-06C4.43595 -5.72205e-06 0 4.50625 0 10.0139C0 15.5216 4.43595 20.0278 9.85771 20.0278L26.4434 20.0278ZM26.4434 18.1888L9.85771 18.1888C5.4223 18.1888 1.81032 14.5196 1.81032 10.0139C1.81032 5.50823 5.4223 1.83902 9.85771 1.83902L26.4434 1.83902C30.8738 1.83902 34.4908 5.50878 34.4908 10.0139C34.4908 14.519 30.8738 18.1888 26.4434 18.1888Z" fill="#6F6F6F"/>
<path fill-rule="evenodd" clip-rule="evenodd" d="M10.6574 16.4407C14.1421 16.4407 16.9844 13.5532 16.9844 10.0134C16.9844 6.47733 14.143 3.58607 10.6574 3.58607C7.1756 3.58607 4.33032 6.47641 4.33032 10.0134C4.33032 13.5541 7.1765 16.4407 10.6574 16.4407Z" fill="#6F6F6F"/>
</svg>
