<svg width="36" height="20" viewBox="0 0 36 20" fill="none" xmlns="http://www.w3.org/2000/svg">
<path fill-rule="evenodd" clip-rule="evenodd" d="M10.0529 20C4.52797 20 0 15.5006 0 10C0 4.49944 4.52797 0 10.0529 0L25.9471 0C31.4762 0 36 4.49999 36 10C36 15.5 31.4762 20 25.9471 20L10.0529 20ZM4.90909 5.80645C4.90909 10.3059 9.43231 5.80645 4.90909 5.80645C4.90909 1.30703 13.6869 5.80645 9.16364 5.80645C4.64555 5.80645 1.96364 5.50113 1.96364 10C2.40839 14.1935 0.390999 5.80645 4.90909 5.80645Z" fill="#1E7E34"/>
<path fill-rule="evenodd" clip-rule="evenodd" d="M25.9471 0C31.472 0 36 4.49944 36 10C36 15.5006 31.472 20 25.9471 20H10.0529C4.52377 20 0 15.5 0 10C0 4.5 4.52377 0 10.0529 0L25.9471 0ZM31.0909 14.1935C31.0909 9.69412 26.5677 14.1935 31.0909 14.1935C31.0909 18.693 22.3131 14.1935 26.8364 14.1935C31.3545 14.1935 34.0364 14.4989 34.0364 10C33.5916 5.80645 35.609 14.1935 31.0909 14.1935Z" fill="#1E7E34"/>
<path fill-rule="evenodd" clip-rule="evenodd" d="M26.0887 16.0625C22.535 16.0625 19.6364 13.1791 19.6364 9.64412C19.6364 6.11301 22.5341 3.22576 26.0887 3.22576C29.6394 3.22576 32.541 6.11209 32.541 9.64412C32.541 13.18 29.6385 16.0625 26.0887 16.0625Z" fill="white"/>
</svg>
